<svg xmlns="http://www.w3.org/2000/svg" viewBox="0 0 571.18 196.5"><defs><style>.cls-1{fill:#0083f7;}.cls-2{fill:#3c3e40;}</style></defs><g id="Layer_2" data-name="Layer 2"><g id="Layer_1-2" data-name="Layer 1"><path class="cls-1" d="M0,166.16v-42H30.73a20.69,20.69,0,0,1,5.58.7,12.44,12.44,0,0,1,4.3,2,9.15,9.15,0,0,1,2.78,3.41,10.79,10.79,0,0,1,1,4.7,12,12,0,0,1-.47,3.53,7.75,7.75,0,0,1-3.14,4.36A8.61,8.61,0,0,1,38.53,144a9.37,9.37,0,0,1,4.74,3.35,9.83,9.83,0,0,1,1.85,6.12,13.65,13.65,0,0,1-1,5.23,11.42,11.42,0,0,1-2.71,4,12.13,12.13,0,0,1-4.27,2.57,16.5,16.5,0,0,1-5.58.89ZM12.65,147.9v-6.18H30.79a7.55,7.55,0,0,0,4.62-1.15q1.5-1.15,1.5-3.93a5,5,0,0,0-.63-2.68,4.13,4.13,0,0,0-1.82-1.57,9.22,9.22,0,0,0-2.83-.72c-1.1-.11-2.32-.17-3.67-.17H7.34v27.38H28.6a20.82,20.82,0,0,0,3.64-.29,9.29,9.29,0,0,0,2.88-1,5,5,0,0,0,1.88-1.7,4.7,4.7,0,0,0,.66-2.6,5,5,0,0,0-1.61-4,7,7,0,0,0-4.74-1.42Z"/><path class="cls-1" d="M55,166.16v-42h7.33v34.66H90.58v7.34Z"/><path class="cls-1" d="M143.1,166.16l-6.3-10.57H116.93l3.46-6h12.89l-9.36-15.72-19.07,32.24H96.48L120.62,126a5.71,5.71,0,0,1,1.51-1.73,3.45,3.45,0,0,1,2.08-.64,3.32,3.32,0,0,1,2.05.64,5.75,5.75,0,0,1,1.47,1.73l24.21,40.21Z"/><path class="cls-1" d="M159.91,166.16v-42h7.34v42Zm34.61,0L171,147.67a3.5,3.5,0,0,1-1.24-1.47,4.73,4.73,0,0,1-.26-1.59,4.27,4.27,0,0,1,.34-1.73,4.87,4.87,0,0,1,1.51-1.62l22.24-17.1h11.27l-27.5,20.51,28.36,21.49Z"/><path class="cls-1" d="M213.93,166.16v-42h37.49v7.34H221.21v27.32h30.27v7.34Zm12.65-18.26v-6.18h23.28v6.18Z"/><path class="cls-1" d="M281.69,166.16v-42H306a21.87,21.87,0,0,1,8.2,1.5,19,19,0,0,1,6.48,4.22,19.32,19.32,0,0,1,4.24,6.5,22.08,22.08,0,0,1,1.53,8.35,23.2,23.2,0,0,1-1.53,8.49,20.61,20.61,0,0,1-4.24,6.79,19.71,19.71,0,0,1-6.48,4.51,20.29,20.29,0,0,1-8.2,1.64ZM306,158.82a13.05,13.05,0,0,0,5.23-1,12.9,12.9,0,0,0,4.16-2.87,12.76,12.76,0,0,0,2.75-4.36,15.17,15.17,0,0,0,1-5.49,15,15,0,0,0-1-5.46,12.69,12.69,0,0,0-2.75-4.3,12.87,12.87,0,0,0-4.16-2.8,13.39,13.39,0,0,0-5.23-1H289v27.32Z"/><path class="cls-1" d="M374.93,166.16,364.3,154.49H348.59V148h17.5q4,0,6-2.16a8.87,8.87,0,0,0,2-6.27q0-4.11-2.1-6.1a8.29,8.29,0,0,0-5.93-2H343.22v34.66h-7.28v-42h30.15a18.16,18.16,0,0,1,6.42,1.07,13.14,13.14,0,0,1,4.79,3.06,13.41,13.41,0,0,1,3,4.83,18.35,18.35,0,0,1,1,6.35,15.9,15.9,0,0,1-2.28,8.81,12.7,12.7,0,0,1-6.38,5.11l12.65,12.77Z"/><path class="cls-1" d="M428.78,124.16h7.16v23.46a25.44,25.44,0,0,1-1.27,8.46,13.83,13.83,0,0,1-4,6,17.25,17.25,0,0,1-7,3.52,47.16,47.16,0,0,1-20.79,0,17.25,17.25,0,0,1-7-3.52,13.91,13.91,0,0,1-4-6,25.44,25.44,0,0,1-1.27-8.46V124.16h7.57v23.46a16.66,16.66,0,0,0,.78,5.43,8,8,0,0,0,2.54,3.69,11,11,0,0,0,4.71,2.11,39.89,39.89,0,0,0,14.56,0,11.16,11.16,0,0,0,4.71-2.11,8.1,8.1,0,0,0,2.54-3.69,16.66,16.66,0,0,0,.78-5.43Z"/><path class="cls-1" d="M496,166.16l-8-29.52L476.09,164a5.69,5.69,0,0,1-1.53,2.06,3.44,3.44,0,0,1-2.22.72,3.9,3.9,0,0,1-3.76-2.78l-11.84-27.32-8,29.52h-7.22l10.8-39.51a3.49,3.49,0,0,1,3.64-3,4,4,0,0,1,3.7,2.48l12.94,29.7,12.94-29.7a3.6,3.6,0,0,1,3.52-2.48c1.77,0,3,1,3.53,3l10.74,39.51Z"/><path class="cls-1" d="M563.9,166.16l-8-29.52L544,164a5.69,5.69,0,0,1-1.53,2.06,3.42,3.42,0,0,1-2.22.72,3.91,3.91,0,0,1-3.76-2.78l-11.84-27.32-8,29.52h-7.22l10.8-39.51a3.49,3.49,0,0,1,3.64-3,4,4,0,0,1,3.7,2.48l12.94,29.7,12.94-29.7a3.6,3.6,0,0,1,3.52-2.48c1.77,0,3,1,3.53,3l10.74,39.51Z"/><path class="cls-2" d="M108.81,178.25v3.34h-7.43V196.5H98V181.59H90.56v-3.34Z"/><path class="cls-2" d="M137.67,181.59h-13.4v4.11h10.79v3.35H124.27v4.1h13.4v3.35H120.9V178.25h16.77Z"/><path class="cls-2" d="M153.92,181.59a.17.17,0,0,0-.17.18V193a.17.17,0,0,0,.17.18H168.6v3.35H153.92A3.52,3.52,0,0,1,150.4,193v-11.2a3.51,3.51,0,0,1,3.52-3.52H168.6v3.34Z"/><path class="cls-2" d="M200.05,178.25V196.5h-3.34v-7.45h-12v7.45H181.4V178.25h3.34v7.45h12v-7.45Z"/><path class="cls-2" d="M228,178.25h3.37V196.5h-3.65l-11.25-13.39V196.5h-3.35V178.25h3.65L228,191.63Z"/><path class="cls-2" d="M244.33,178.25h3.35V196.5h-3.35Z"/><path class="cls-2" d="M263.54,181.59a.17.17,0,0,0-.17.18V193a.17.17,0,0,0,.17.18h14.68v3.35H263.54A3.52,3.52,0,0,1,260,193v-11.2a3.51,3.51,0,0,1,3.52-3.52h14.68v3.34Z"/><path class="cls-2" d="M305.74,178.25a3.54,3.54,0,0,1,3.55,3.52V196.5h-3.37v-6.14H294.39v6.14H291V181.77a3.52,3.52,0,0,1,3.52-3.52Zm.18,8.76v-5.24a.18.18,0,0,0-.18-.18H294.56a.17.17,0,0,0-.17.18V187Z"/><path class="cls-2" d="M322.34,178.22h3.35v14.93h14.9v3.35H322.34Z"/><path class="cls-2" d="M387.73,185.34a2.92,2.92,0,0,1-.25,1.29,3.6,3.6,0,0,1,1,2.42V193a3.55,3.55,0,0,1-3.55,3.53h-14.7V178.25h14a3.53,3.53,0,0,1,3.52,3.52Zm-14-3.75a.18.18,0,0,0-.18.18v3.57a.18.18,0,0,0,.18.18h10.46a.18.18,0,0,0,.16-.18v-3.57a.18.18,0,0,0-.16-.18Zm11.35,7.46c0-.11-.08-.16-.18-.16H373.75c-.1,0-.18.05-.18.16V193a.18.18,0,0,0,.18.18h11.17a.18.18,0,0,0,.18-.18Z"/><path class="cls-2" d="M401.4,178.22h3.34v14.93h14.9v3.35H401.4Z"/><path class="cls-2" d="M445.93,178.25a3.53,3.53,0,0,1,3.52,3.52V193a3.54,3.54,0,0,1-3.52,3.53H434.72A3.53,3.53,0,0,1,431.2,193v-11.2a3.52,3.52,0,0,1,3.52-3.52Zm0,14.9a.18.18,0,0,0,.15-.18v-11.2a.18.18,0,0,0-.15-.18H434.72a.17.17,0,0,0-.17.18V193a.17.17,0,0,0,.17.18Z"/><path class="cls-2" d="M480.62,183.19h-3.36v-1.42a.18.18,0,0,0-.18-.18H465.9a.18.18,0,0,0-.18.18V193a.18.18,0,0,0,.18.18h11.18a.18.18,0,0,0,.18-.18v-3.45h-4.14v-3.34h7.5V193a3.54,3.54,0,0,1-3.54,3.53H465.9a3.52,3.52,0,0,1-3.52-3.53v-11.2a3.51,3.51,0,0,1,3.52-3.52h11.18a3.53,3.53,0,0,1,3.54,3.52Z"/><polygon class="cls-2" points="190.01 106.23 205.6 106.23 207.57 96.67 191.98 96.67 190.01 106.23"/><path class="cls-2" d="M162.62,106.23l2-9.56h-29.1l-1.85,7v.65c0,1.31.94,2,2.83,2h26.16Z"/><polygon class="cls-2" points="170.8 106.23 181.82 106.23 183.79 96.67 172.77 96.67 170.8 106.23"/><path class="cls-1" d="M432,4.34Q426.48,0,418,0H312.86c-1.31,0-2,.36-2,1.08q0,.66,3.7,4.13t3.69,6.08v1.09L299.77,81.84,286.61,85h60.6L351.4,69.3l15.18-56.9q.66-2.62,4.12-2.63H388c1.88,0,2.82.66,2.82,2a.89.89,0,0,1-.22.65L369.12,93.85A3.85,3.85,0,0,1,365,96.67H277a20.6,20.6,0,0,0,5.7-9.78l5.21-19.33a18,18,0,0,0,.44-3.91q0-4.35-6.95-10.43,12.38-7.38,14.12-14.55l5.21-19.34a17.89,17.89,0,0,0,.44-3.91,13.5,13.5,0,0,0-5.54-11.08Q290.08,0,281.6,0H176.45q-1.95,0-1.95,1.08,0,.66,3.69,4.13t3.69,6.08v1.09l-18.53,69.5-13,3.15H211l0-.09,4.17-15.64h0q1-3.92,2.25-8.45Q218,58,221.51,58h17.3c1.73,0,2.59.72,2.59,2.17q0,.21-8.68,33.68a3.84,3.84,0,0,1-4.11,2.82H213.85l-2,9.56H390a33.09,33.09,0,0,0,18.57-5.65q8.58-5.64,10.54-13.69l18-67.56a18.51,18.51,0,0,0,.43-3.91A13.47,13.47,0,0,0,432,4.34ZM245.48,45.61a3.83,3.83,0,0,1-4.11,2.83h-17.3c-1.87,0-2.81-.72-2.81-2.15q0-.23,9-33.88.65-2.64,4.11-2.64h17.3c1.87,0,2.81.66,2.81,2Q254.44,12.17,245.48,45.61Z"/></g></g></svg>